<svg width="25" height="25" viewBox="0 0 25 25" fill="white">
    <circle cx="12.5" cy="12.5" r="12.5" fill="#575757"></circle>
    <path fill-rule="evenodd" clip-rule="evenodd"
        d="M12.4994 3.67657C9.2565 3.67657 6.61768 6.29508 6.61768 9.51377C6.61768 10.8104 7.4513 12.9236 9.16731 15.9752C10.3815 18.1328 11.5754 19.9321 11.6254 20.008L12.4994 21.3236L13.3735 20.008C14.2365 18.6945 15.0563 17.3494 15.8316 15.9752C17.5476 12.9236 18.3824 10.8104 18.3824 9.51377C18.3824 6.29508 15.7436 3.67657 12.4994 3.67657ZM12.4994 12.5007C10.8155 12.5007 9.45034 11.1459 9.45034 9.47451C9.45034 7.80313 10.8155 6.44956 12.4994 6.44956C14.1833 6.44956 15.5485 7.80313 15.5485 9.47451C15.5485 11.1459 14.1833 12.5007 12.4994 12.5007Z"
        fill="white"></path>
</svg>