<svg width="25" height="25" viewBox="0 0 25 25" fill="white">
    <circle cx="12.5" cy="12.5" r="12.5" fill="#575757"></circle>
    <path fill-rule="evenodd" clip-rule="evenodd"
        d="M14.7671 12.5883L19.827 7.87717V17.19L14.7671 12.5883ZM5.50475 7.20234C5.70261 7.00415 5.95975 6.89511 6.22597 6.8965H18.773C19.0541 6.8965 19.3076 7.01154 19.4954 7.20094L12.4988 13.6209L5.50475 7.20234ZM5.17188 17.19V7.87997L10.2305 12.5883L5.17188 17.19ZM12.4988 14.7419L14.312 13.0429L19.4929 17.7989C19.295 17.9959 19.0385 18.1044 18.773 18.1034H6.22597C5.95924 18.1046 5.70149 17.9962 5.50222 17.7989L10.6857 13.0429L12.4988 14.7419Z"
        fill="white"></path>
</svg>