<svg width="25" height="25" viewBox="0 0 25 25" fill="white">
    <circle cx="12.5" cy="12.5" r="12.5" fill="#575757"></circle>
    <path fill-rule="evenodd" clip-rule="evenodd"
        d="M19.8201 16.4874C19.836 16.5955 19.8244 16.7059 19.7863 16.8083C19.7482 16.9107 19.6849 17.0017 19.6023 17.0729L17.5388 19.0008C17.4344 19.1063 17.3108 19.1908 17.1748 19.2496C16.9443 19.3566 16.6916 19.4064 16.4379 19.395C16.2409 19.395 15.9226 19.3636 15.483 19.3007C15.0435 19.2365 14.5061 19.0807 13.8695 18.8331C13.2343 18.5843 12.513 18.2123 11.7055 17.7159C10.8994 17.2183 10.0411 16.5372 9.13067 15.6702C8.47977 15.0769 7.87779 14.4317 7.33062 13.7409C6.90563 13.2038 6.52191 12.6351 6.18275 12.0396C5.92437 11.5875 5.70654 11.1133 5.53186 10.6225C5.404 10.2656 5.30499 9.89904 5.23577 9.52623C5.17053 9.19203 5.15514 8.84994 5.19011 8.5112C5.23825 8.22058 5.37981 7.95378 5.59317 7.75155L7.65671 5.80792C7.78916 5.67683 7.96771 5.60343 8.15369 5.6036C8.281 5.60141 8.40572 5.63994 8.50978 5.71362C8.61332 5.7866 8.70263 5.87805 8.77327 5.98343L10.4338 8.94995C10.4795 9.02578 10.5099 9.10996 10.5231 9.19763C10.5363 9.28529 10.5321 9.37472 10.5107 9.46075C10.4729 9.64012 10.3809 9.80341 10.2472 9.92832L9.48677 10.6447C9.46252 10.672 9.4443 10.7042 9.43329 10.739C9.41954 10.7742 9.4116 10.8113 9.40981 10.8491C9.45155 11.0534 9.54416 11.2865 9.68895 11.5498C9.81287 11.7842 10.0046 12.0684 10.2629 12.405C10.5212 12.7403 10.889 13.128 11.3651 13.5667C11.8295 14.0147 12.2443 14.3617 12.6056 14.6106C12.9682 14.8594 13.2708 15.0415 13.5134 15.1581C13.756 15.2759 13.9426 15.3467 14.0717 15.3702L14.2661 15.4069C14.3004 15.4045 14.3343 15.397 14.3665 15.3846C14.4033 15.3753 14.4376 15.3579 14.4669 15.3336L15.3513 14.4862C15.5335 14.3319 15.7652 14.249 16.0035 14.253C16.1482 14.2459 16.2924 14.2761 16.4222 14.3408H16.4379L19.4314 16.0054C19.6493 16.1325 19.7784 16.2936 19.8201 16.4874Z"
        fill="white"></path>
</svg>